<svg width="1026" height="652" viewBox="0 0 1026 652" fill="none" xmlns="http://www.w3.org/2000/svg">
<path d="M171.411 499.838L171.077 594.887L172.859 596L176.311 596.223L177.982 594.998H180.877L181.1 598.226L188.896 605.794L189.452 608.688L193.239 606.573L193.907 606.351L194.241 602.901L195.912 601.12L197.137 600.897L199.253 599.228L202.705 601.565L203.373 604.793L205.489 606.017L206.714 608.688L211.057 610.691L214.844 617.369L217.851 621.71L220.412 624.715L222.083 628.833L227.651 630.837L233.442 633.174L234.556 638.071L235.113 641.521L233.999 645.305L231.994 647.865L230.212 646.975L228.542 643.525L225.535 641.855L223.53 640.631L222.64 641.521L224.31 644.526L224.533 648.644L223.308 649.201L221.192 647.086L218.853 645.639L219.41 647.42L220.858 649.423L219.967 650.314C219.967 650.314 219.076 649.98 218.519 649.201C217.962 648.533 216.18 645.417 216.18 645.417L215.067 642.857C215.067 642.857 214.733 644.304 213.953 643.97C213.285 643.636 212.505 642.3 212.505 642.3L214.51 640.186L212.839 638.516V632.951H211.948L211.057 636.735L209.832 637.292L208.719 633.174L208.051 629.056L207.16 628.499L207.494 634.843V636.067L205.823 634.621L201.814 627.943L199.475 627.386L198.807 623.268L197.025 620.041L195.243 618.816V616.256L197.582 614.809L197.025 614.476L194.13 615.143L190.343 612.472L187.448 609.245L182.102 606.351L177.648 603.457L179.095 599.895V598.115L177.091 599.895L173.861 601.12L169.741 599.895L163.393 597.224H157.268L156.599 597.781L149.361 593.44L147.022 593.106L144.015 586.651L140.006 586.985L135.997 588.654L136.554 593.663L137.779 590.435L138.892 590.769L137.222 595.666L140.785 592.661L141.454 594.442L137.11 599.339L135.663 599.005L135.106 596.89L133.658 596L132.21 597.224L129.203 595.221L125.751 597.558L123.746 599.895L119.96 602.233L114.726 602.01L114.169 599.673L118.29 599.005V597.558L115.728 596.89L116.842 594.219L119.403 589.879V587.875L119.626 586.985L124.526 584.425L125.64 585.872H128.647L127.199 582.978L123.078 582.644L117.51 585.649L114.837 589.433L112.833 592.327L111.608 594.887L106.93 596.557L103.478 599.45L103.144 601.231L105.705 602.344L106.596 604.681L103.589 608.243L96.3504 612.917L87.6639 617.592L85.3252 618.816L79.4228 620.041L73.5204 622.6L75.525 624.047L73.8545 625.717L73.2977 626.941L70.2908 625.828L66.7271 626.051L65.8362 628.611H64.7225L65.0566 625.939L61.0474 627.386L57.8178 628.499L54.0314 627.052L50.8018 629.167H47.238L44.8994 630.614L43.1175 631.504L40.7788 631.17L37.8833 629.946L35.3219 630.614L34.2082 631.727L32.4264 630.503V628.388L35.8787 626.941L42.8948 627.609L47.7949 625.828L50.1336 623.491L53.3632 622.823L55.3678 621.933L58.3746 622.155L60.1565 623.602L61.2702 623.268L63.8316 620.263L67.2839 619.15L71.0704 618.482L72.5181 618.148L73.1863 618.705H74.0772L75.525 614.587L79.9796 612.917L82.0956 608.799L84.657 603.791L86.4389 602.121L86.773 599.228L84.9911 600.675L81.2047 601.342L80.5365 598.671L79.0887 598.337L77.9751 599.45L77.7523 602.678L76.0818 602.455L74.4113 596L72.9636 597.447L71.7386 596.89L71.4045 594.776L66.9498 594.998L64.6111 596.223L61.7156 595.889L63.3861 594.219L63.9429 591.326L63.2747 589.211L64.9452 588.098L66.393 587.875L65.7248 585.872V580.975L64.6111 579.862L63.7202 581.531H56.9269L55.2564 580.084L54.5882 575.744L52.2495 571.737V570.624L54.5882 569.734L54.8109 567.396L56.036 566.172L55.145 565.616L53.6973 566.172L52.4722 563.167L53.5859 557.602L58.5974 554.041L61.4929 552.26L63.6088 548.142L66.6157 546.695L69.5112 547.919L69.8453 550.59L72.5181 550.256L76.0818 547.585L77.8637 548.253L78.9773 548.921H80.7592L83.3206 547.474L84.2116 542.577C84.2116 542.577 84.5457 539.349 85.3252 538.793C85.9934 538.236 86.4389 537.68 86.4389 537.68L85.2138 535.565L82.3183 536.455L78.7546 537.346L76.6387 536.789L72.6295 534.786L67.0612 534.563L63.052 530.445L63.6088 526.105L64.277 523.433L61.9384 521.43L59.8224 517.312L60.3792 516.422L67.9521 515.865H70.2908L71.4045 516.978H72.0727L71.8499 515.197L76.1932 514.53L79.0887 514.863L80.7592 516.088L79.0887 518.425L78.5319 520.094L81.5388 521.875L87.1071 523.879L89.1117 522.766L86.5502 517.868L85.4366 514.307L86.5502 513.417L82.7638 511.302L82.207 510.078L82.7638 508.297L81.8729 503.956L78.6433 498.725L75.9705 494.051L79.2001 491.936H82.7638L84.7684 492.604L89.4458 492.381L93.5663 488.374L94.7913 484.924L98.9119 482.253L100.694 483.366L103.701 482.698L107.821 480.361L109.046 480.138L110.16 481.029L115.171 480.806L118.178 477.356H119.403L123.412 480.027L125.528 482.364L124.972 483.589L125.64 484.813L127.422 483.032L131.765 483.366L132.099 487.484L134.215 489.153L142.122 489.821L149.138 494.496L150.808 493.383L156.599 496.277L158.938 495.609L161.054 494.718L166.4 496.833L171.411 499.838ZM43.2289 532.003L45.5675 537.902L45.3448 539.015L42.1152 538.681L40.1106 534.229L38.106 532.56H35.4332L35.2105 529.666L37.2151 526.995L38.4401 529.666L40.1106 531.336L43.2289 532.003ZM40.3333 569.288L44.4539 570.179L48.5744 571.292L49.4654 572.405L47.6835 576.523L44.2312 576.3L40.4447 572.293L40.3333 569.288ZM17.2806 553.595L18.5056 556.489L19.7306 558.27L18.5056 559.16L16.1669 555.71V553.595H17.2806ZM2.02344 634.954L5.80988 632.395L9.59633 631.282L12.4918 631.616L13.0487 633.396L15.1646 633.953L17.2806 631.838L16.9465 630.057L19.9534 629.39L23.183 632.283L21.958 634.287L17.0578 635.511L14.051 634.954L9.93042 633.73L5.03032 635.4L3.24846 635.734L2.02344 634.954ZM56.4814 629.946L58.2633 632.061L60.602 630.28L58.9315 628.833L56.4814 629.946ZM59.711 633.285L60.9361 630.725L63.2747 631.059L62.3838 633.174H59.711V633.285ZM85.9934 631.17L87.6639 633.174L88.7776 631.949L87.8866 629.835L85.9934 631.17ZM95.7936 617.258L97.0186 623.713L100.248 624.604L105.817 621.376L110.717 618.482L108.935 615.811L109.492 613.14L107.153 614.587L103.923 613.697L105.705 612.472L107.821 613.363L112.164 611.359L112.721 609.69L110.048 608.799L110.939 606.685L107.933 608.799L102.698 612.806L97.3527 616.034L95.7936 617.258ZM142.901 595.221L145.574 593.552L144.461 591.548L142.456 592.661L142.901 595.221Z" fill="#EDF0EA" stroke="white" stroke-width="2"/>
<path d="M251.595 572.85L253.711 568.843L256.272 568.509L256.606 569.4L254.268 572.85H251.595ZM262.954 568.732L269.747 571.626L272.086 571.292L273.868 566.951L273.2 563.167L268.522 562.611L264.068 564.614L262.954 568.732ZM297.143 579.862L301.264 585.983L303.937 585.649L305.162 585.093L306.832 586.54L310.953 586.317L312.066 584.648L308.837 582.644L306.721 578.526L304.382 574.52L297.923 577.747L297.143 579.862ZM319.639 589.767L321.087 587.653L326.321 588.766L326.989 588.209L333.783 588.877L333.449 590.324L330.553 591.993L325.653 591.659L319.639 589.767ZM325.542 595.555L327.658 599.896L331.11 598.671L331.444 596.891L329.662 594.553L325.542 594.219V595.555ZM333.337 594.219L335.899 590.992L341.133 593.663L346.033 594.887L350.933 597.892V600.007L346.924 602.01L341.578 603.123L338.906 601.454L333.337 594.219ZM351.824 611.582L353.606 610.135L357.392 611.916L365.856 615.923L369.643 618.26L371.425 620.931L373.541 625.828L377.995 628.722L377.661 630.169L373.318 633.73L368.64 635.4L366.97 634.732L363.518 636.735L360.845 640.297L358.283 643.525L356.279 643.302L352.27 640.408L351.936 635.4L352.604 632.729L350.822 626.385L348.483 624.381L348.26 621.487L350.822 620.374L353.161 616.924L353.717 615.811L351.936 613.808L351.824 611.582Z" fill="#EDF0EA" stroke="white" stroke-width="2"/>
<path d="M691.935 513.973L692.604 514.196L694.051 511.191L695.722 506.293L698.283 506.961L701.736 513.639V514.752L698.729 516.867L701.736 517.201L707.527 514.418L707.193 505.96L704.408 503.956L702.181 501.73L702.626 497.278L714.32 495.609L742.941 492.381L750.403 491.713L756.639 491.825L756.082 489.376L754.412 488.486L753.409 487.261L754.523 484.368L754.078 478.58L752.296 473.572L753.187 467.895L755.08 462.553L754.857 460.661L752.853 459.882L752.296 455.875L749.289 452.091L747.062 444.857L745.502 437.4L743.498 431.835L739.266 414.027L735.368 405.234L734.477 399.002L734.589 396.553L724.566 397.444L698.506 399.892L684.919 400.782L684.697 407.906L684.919 426.492L684.14 460.995L683.806 476.688L686.924 497.612L688.706 513.973H691.935Z" fill="#EDF0EA" stroke="white" stroke-width="2"/>
<path d="M142.456 428.607L142.122 430.277L142.679 431.39L163.727 443.298L177.202 451.757L193.573 461.329L212.283 472.459L225.981 475.13L254.268 478.135L260.95 434.061L268.745 374.961L273.645 340.459L246.249 336.452L178.65 324.209L178.427 325.433L175.532 343.798L173.193 348.027L170.075 347.804L168.739 344.911L165.843 344.465L164.507 343.241L163.282 343.352L160.943 345.245L160.609 352.813L160.275 354.482L159.718 368.395L158.047 371.066L157.602 374.739L160.72 380.304L161.945 386.425L162.725 387.649L163.95 388.651L163.504 391.322L161.611 392.658L157.825 394.438L156.043 396.442L154.261 400.449L153.704 405.902L150.363 409.13L148.247 410.132L148.136 416.587L147.468 418.368L148.024 419.258L152.368 419.703L151.365 423.042L149.472 425.713L145.352 426.159L142.456 428.607Z" fill="#E0F0D1" stroke="white" stroke-width="2"/>
<path d="M415.414 256.985L375.322 253.089L287.232 243.518L284.782 268.115L276.986 324.209L274.87 339.457L312.735 343.798L354.497 348.695L393.141 352.034L409.066 352.702L415.414 256.985Z" fill="#E0F0D1" stroke="white" stroke-width="2"/>
<path d="M940.839 207.346L944.848 203.784L946.964 201.447L947.855 202.115L950.862 200.445L956.653 199.221L964.449 195.326L963.78 190.651L962.889 185.754L961.108 179.076L956.319 180.3L932.041 185.531L932.709 188.981L934.38 197.106V206.344L933.377 208.681L935.271 211.13L940.839 207.346Z" fill="#EDF0EA" stroke="white" stroke-width="2"/>
<path d="M921.238 270.007L920.125 270.563L916.116 267.892L914.111 262.661L911.995 258.654L909.434 257.541L907.095 253.535L907.652 251.309L908.209 248.749L908.32 247.524L907.652 247.636L905.759 248.749L903.531 250.641L903.309 250.975L904.868 255.538L907.429 261.771L911.55 279.69L917.118 279.356L923.8 278.131L921.238 270.007Z" fill="#EDF0EA" stroke="white" stroke-width="2"/>
<path d="M827.468 490.378L821.677 489.599L820.897 490.489L822.568 495.386L822.122 501.174L817.556 500.061L817.334 496.944H812.768L806.865 497.723L770.783 499.838L761.651 499.504L759.758 497.612L756.973 492.938H750.403L743.053 493.494L703.629 498.169L703.295 501.285L705.077 503.066L708.306 505.292L708.64 514.641L712.316 513.973L718.998 511.636L725.679 511.079L730.58 510.411L739.043 512.415L748.064 516.755L749.846 518.425L753.076 519.649L754.857 521.764L755.191 524.769L758.755 523.322H763.098L767.108 521.207L771.228 517.201L774.681 517.423L775.237 516.199L774.346 515.086L774.569 512.971L779.024 512.081H781.919L785.149 513.75L789.826 515.42L792.499 519.538L795.506 520.651L796.731 524.435L800.517 526.216L802.299 529.11L804.415 529.777L810.206 531.224L811.654 534.675L814.995 538.793V549.366L813.325 554.597L813.659 557.602L815.106 562.944L817.111 567.396L818.002 566.84L819.672 561.831L816.777 560.718L816.443 560.051L818.225 559.383L823.236 560.496L823.459 562.277L819.895 568.398L817.556 571.069L821.566 575.187L824.461 578.637L827.691 584.536L830.92 588.877L833.259 594.442L835.264 594.776L837.045 592.439L839.05 593.663L841.946 598.115L842.614 602.121L846.066 607.019L846.957 605.572L851.3 605.906L855.31 608.465L859.096 614.253L859.987 618.037L860.321 621.265L861.546 622.378L862.994 622.934L865.667 621.821L867.337 620.041L871.68 619.818L875.133 618.148L878.14 614.587L877.583 612.472L877.249 609.801L877.917 607.686L877.583 605.572L880.255 604.125L880.59 600.341L879.921 598.337L879.365 584.981L877.917 576.523L872.905 567.396L868.896 560.941L866.001 555.042L862.771 551.815L859.541 543.578L860.321 542.02L861.546 540.573L859.764 537.346L855.31 533.228L849.964 527.106L845.843 520.094L839.941 509.632L835.82 498.836L833.259 490.712L827.468 490.378ZM847.18 638.071L849.853 637.403L851.3 637.18L852.971 634.621L855.532 632.84L856.98 633.396L858.873 633.73L859.319 634.954L855.421 636.29L850.743 637.96L848.182 639.295L847.18 638.071ZM862.214 632.506L863.551 633.73L866.557 631.393L872.46 626.718L876.58 622.378L879.365 615.032L880.478 613.14L880.701 609.356L879.921 609.912L878.808 613.029L877.137 618.148L873.574 624.047L868.673 628.722L864.887 630.837L862.214 632.506Z" fill="#EDF0EA" stroke="white" stroke-width="2"/>
<path d="M827.469 489.265L821.232 488.486L819.673 490.266L821.455 495.497L821.121 499.838L818.671 499.17L818.448 495.831H812.657L806.755 496.61L770.783 498.725L762.208 498.391L760.649 497.056L757.865 492.27L756.974 488.597L755.192 487.595L754.635 487.039L755.638 484.59L755.192 478.469L753.41 473.46L754.301 468.007L756.195 462.664L755.972 459.882L753.856 459.103L753.41 455.541L750.292 451.646L748.176 444.745L746.506 436.954L744.612 431.612L740.381 413.804L736.483 404.9L735.592 399.002L735.703 396.442L739.378 396.108L754.524 394.327L775.238 392.101L782.254 390.877L782.811 392.435L780.361 393.437L779.359 395.885L779.804 398.111L781.363 399.892L786.152 402.897L789.716 402.786L793.279 408.017L793.948 409.798L796.509 412.914L797.066 414.806L802.3 416.809L805.641 419.258L808.202 422.597L810.764 424.044L812.991 426.047L814.55 429.052L816.889 431.167L821.455 433.17L824.462 439.848L826.355 445.524L829.473 446.304L831.812 448.418L834.039 454.762L837.269 456.543L839.162 455.653L839.608 456.988L835.933 463.889L836.489 466.782L834.819 471.457L832.258 482.587L833.148 489.599L827.469 489.265Z" fill="#EDF0EA" stroke="white" stroke-width="2"/>
<path d="M612.086 199.221L614.425 201.558L614.759 202.337L612.532 205.676L612.866 210.128L615.761 214.691L619.214 216.472L621.886 216.806L622.889 218.809L623.111 221.481L625.896 222.594L626.898 223.818L627.455 225.599L631.687 229.272L632.355 231.386L631.575 234.725L629.682 238.843L629.014 241.514L626.675 243.295L624.893 243.852L618.545 245.521L616.764 250.863L617.654 252.867L619.548 254.536L619.325 258.432L617.209 259.99L616.429 261.993V264.664L614.87 265.11L612.977 266.668L612.42 268.56L612.866 270.452L611.418 271.565L608.857 268.56L607.297 265.444L598.054 266.334L586.917 267.002L532.125 268.337L530.344 263.551L529.898 256.094L528.339 251.42L527.559 245.632L525.109 241.514L523.996 236.395L520.989 227.713L519.764 221.481L518.205 219.366L516.757 216.138L518.65 211.909L519.986 205.12L516.98 202.671L516.646 200L517.425 197.329L519.43 196.995L587.474 196.327L611.084 195.548L612.086 199.221Z" fill="#E0F0D1" stroke="white" stroke-width="2"/>
<path d="M187.225 25.6287L181.879 45.0057L176.868 68.2226L173.081 86.2752L172.636 97.0378L173.972 101.979L177.87 104.94L177.647 109.292L173.304 114.189L168.293 121.535L167.29 124.762L165.954 125.987L163.949 126.877L159.161 132.776L158.715 136.226L158.27 137.45L158.938 138.563L161.833 138.452L163.058 141.012L160.386 147.467L159.049 152.142L149.249 191.43L172.302 196.438L216.291 205.231L255.047 212.02L260.504 179.521L264.736 152.698L261.729 150.027L261.283 147.133L260.392 145.909L258.054 147.022L257.274 149.916L253.71 150.472L249.367 148.691L245.135 148.803L242.351 149.582L238.565 147.912L235.892 148.135L233.219 150.361L230.992 149.137L230.212 144.685L230.992 141.457L228.208 138.229L224.532 135.336L221.526 120.755L221.414 115.524L221.08 115.413L220.857 115.858L215.178 119.754L213.284 119.531L210.055 115.747L209.832 112.297L217.628 93.2314L217.182 91.0722L213.396 89.7922L212.728 88.4789L209.832 84.628L204.709 73.2422L201.146 71.5393L198.918 66.03L200.366 60.8769L196.802 52.4405L201.702 28.489L187.225 25.6287Z" fill="#EDF0EA" stroke="white" stroke-width="2"/>
<path d="M681.022 233.39L680.131 230.496L678.683 226.378L676.901 224.374L675.231 221.481L674.785 215.359L657.078 217.363L637.7 218.476H624.002L624.225 220.813L626.675 221.815L627.9 223.373L628.346 224.931L632.689 228.715L633.469 231.386L632.689 235.059L630.796 239.177L629.905 242.182L627.232 244.297L625.116 244.965L619.325 246.412L617.877 250.975L618.545 252.199L620.661 254.202L620.439 258.988L618.1 260.769L617.543 262.216V265.332L615.539 266L613.979 267.336L613.534 268.671L613.979 270.897L612.198 272.344L611.195 275.46L611.529 279.801L614.091 287.592L621.886 296.051L628.234 300.169V305.066L629.014 306.401L636.364 307.069L639.371 308.627L638.591 312.523L636.141 319.423L635.25 322.762L637.478 326.88L644.605 332.779L649.951 333.67L652.401 339.346L654.628 343.13L653.626 346.246L655.296 350.476L657.189 352.813L658.971 352.479L660.085 350.03L662.758 348.138L665.876 347.025L672.669 349.808L673.226 349.585V348.361L671.89 345.356L672.335 342.24L675.008 340.459L678.795 339.123L678.238 337.676L677.347 335.45L678.683 334.003L679.797 330.998V326.546L680.242 321.093L683.026 317.754L685.031 313.524L687.815 309.073L687.258 303.174L685.254 299.612L684.92 295.939L685.811 290.041L685.031 282.027L683.806 264.442L682.247 247.413L681.245 234.391L681.022 233.39Z" fill="#EDF0EA" stroke="white" stroke-width="2"/>
<path d="M685.699 235.393L687.369 236.506L688.594 236.172L690.933 234.057L693.717 232.054L709.643 230.83L730.134 228.826L731.916 246.078L737.373 293.491L736.705 296.718L738.152 298.499L738.375 299.946L735.814 301.727L731.804 303.619L728.241 304.064L727.684 309.406L722.45 313.413L719.22 317.865L719.443 320.536L718.886 322.094H714.988L713.429 320.202L707.638 323.541L707.861 326.992L706.858 327.214L706.302 326.212L703.629 324.32L699.62 325.99L698.061 329.218L696.724 328.55L694.942 326.546L690.042 327.103L683.694 328.216L680.91 329.663V326.769L681.356 321.538L683.917 318.31L685.922 313.97L688.929 309.295L688.372 302.84L686.367 299.39L686.033 295.828L686.924 289.929L686.144 282.027L685.142 268.003L682.358 234.503L685.699 235.393Z" fill="#EDF0EA" stroke="white" stroke-width="2"/>
<path d="M533.128 283.696L484.349 283.029L439.135 281.693L414.968 280.691L410.18 352.813L437.242 353.926L487.022 356.263L538.585 356.931L552.617 356.597L553.396 317.643L552.06 305.288L549.276 303.062L546.603 299.723L544.042 295.717L544.71 292.378L546.603 290.82V288.482L545.712 287.703L542.817 287.481L538.919 283.696H533.128Z" fill="#E0F0D1" stroke="white" stroke-width="2"/>
<path d="M578.788 535.676L587.809 535.342L599.279 539.349L606.518 540.573L610.639 538.904L614.203 540.128L617.766 541.241L618.657 538.904L615.093 537.68L612.198 538.236L609.191 536.455L610.082 534.786L613.534 533.673L615.539 535.342L617.544 534.229L621.107 534.897L622.778 537.568L623.112 540.128L628.123 540.462L630.128 542.466L629.237 544.246L627.789 545.137L629.571 546.917L638.926 550.924L642.935 549.477L644.049 546.806L646.944 546.138L648.949 544.469L650.396 545.582L651.287 548.81L648.726 549.7L649.394 550.368L653.181 548.921L655.742 545.137L656.633 544.58L654.294 544.246L655.185 542.466L654.962 540.796L657.301 540.24L658.526 538.793L659.194 539.683L659.863 543.133L664.54 543.801L668.995 545.916L670.108 547.585H673.338L674.563 548.698L677.124 545.248V543.579H675.677L671.89 540.573L665.431 539.683L661.867 537.123L663.092 534.118L665.654 534.452L665.876 533.784L663.872 532.671V532.115H667.435L669.44 528.665L667.992 526.55L667.658 523.545L665.988 523.767L663.872 526.105L663.204 528.998L659.751 528.331L658.638 526.327L660.642 524.213L662.758 522.32L660.308 515.086L656.522 511.302L657.635 503.177L657.413 502.621L655.965 502.843L619.103 504.401L618.212 501.73L619.103 492.27L628.68 475.798L627.678 472.904L629.237 472.459L629.682 470.233L627.232 468.007L627.344 465.892L625.116 460.884L624.671 455.207L624.782 454.428L595.382 455.319L567.317 455.43L567.763 466.226L568.542 476.799L569.099 480.917L571.995 485.926L572.997 490.823L577.786 497.501L578.12 500.951L578.788 501.842L578.009 511.079L574.89 516.199L576.227 518.87L575.67 521.764L574.779 529.889L573.331 533.228L573.554 537.346L578.788 535.676Z" fill="#E0F0D1" stroke="white" stroke-width="2"/>
<path d="M921.684 288.816L923.577 284.587L924.134 279.245L917.118 280.469L910.658 280.803L906.426 262.105L903.865 255.983L902.195 250.863L877.471 255.649L835.598 264.108L837.825 275.683L843.171 270.229L845.955 269.45L847.514 267.781L849.518 264.776L851.3 265.555L854.196 265.332L857.091 262.995L859.319 261.325L861.657 260.658L863.328 261.882L866.335 263.44L868.451 265.444L869.898 267.002L875.244 268.782L874.576 272.01L881.035 274.347L883.374 271.454L887.494 274.236L885.156 277.909L884.376 281.582L882.371 284.476V286.813L882.705 287.703L884.933 289.15L888.719 290.374L893.508 290.263L896.96 291.376L899.299 291.71L900.413 289.373L898.742 287.035V285.032L896.069 282.695L893.731 276.573L895.178 270.675L894.956 268.337L893.508 266.89C893.508 266.89 895.178 265.11 895.178 264.331C895.178 263.663 895.735 261.993 895.735 261.993L897.851 260.546L899.967 258.766L900.524 259.879L898.854 261.659L897.406 265.777L897.74 267.002L899.744 267.336L900.301 273.457L897.963 274.57L898.297 278.577L898.854 278.354L900.079 276.239L901.86 278.243L900.079 279.69L899.744 283.474L902.64 287.258L906.983 287.815L908.765 286.924L912.329 291.599L913.443 292.044L921.684 288.816ZM905.536 289.039L906.761 291.821L906.983 293.825L908.208 295.939C908.208 295.939 909.211 294.938 909.211 294.604C909.211 294.27 908.431 291.153 908.431 291.153L907.652 288.594L905.536 289.039Z" fill="#EDF0EA" stroke="white" stroke-width="2"/>
<path d="M709.755 229.717L731.026 227.602L731.248 228.826L742.274 227.157L755.638 225.265L755.749 224.597L755.972 222.927L758.31 218.809L760.538 216.917L760.315 211.241L762.097 209.46L763.322 209.126L763.545 205.12L765.215 201.781L766.44 202.449L766.663 203.116L767.554 203.339L769.67 202.226L769.224 192.098L765.661 182.971L763.099 172.843L760.426 169.282L757.531 167.278L755.749 168.503L751.406 170.506L749.29 176.071L746.283 180.189L745.058 180.857L743.387 180.189C743.387 180.189 740.492 178.519 740.715 177.852C740.937 177.184 741.271 172.287 741.271 172.287L745.058 170.84L745.949 167.056L746.617 164.162L749.29 162.381L748.956 151.251L747.174 148.691L745.726 147.801L744.835 145.464L745.726 144.573L747.508 144.907L747.731 143.126L744.835 140.678L743.387 137.784H740.492L735.48 136.115L729.355 132.331H726.348L725.68 132.998L724.566 132.442L721.114 129.882L717.884 131.885L714.655 134.445L714.989 138.452L716.103 138.786L718.441 139.342L718.998 140.233L716.103 141.123L713.207 141.457L711.537 143.46L711.203 145.798L711.537 147.578L711.871 153.7L707.862 156.037L707.193 155.814V151.14L708.641 148.469L709.309 145.798L708.418 144.907L706.302 145.798L705.189 150.472L702.182 151.696L700.177 153.811L699.955 154.924L700.623 155.814L699.955 158.708L697.393 159.265V160.489L698.284 163.16L697.059 169.949L695.277 174.401L695.945 179.632L696.502 180.857L695.611 183.528L695.277 184.418L694.943 187.423L698.952 194.101L702.182 201.336L703.852 206.678L702.961 211.909L701.848 218.587L699.175 224.374L698.841 227.379L695.277 230.83L709.755 229.717ZM672.67 149.137L671.222 147.912L669.218 136.337L665.097 134.89L663.204 132.331L649.172 129.214L646.053 127.99L637.033 125.541L628.346 124.428L624.003 118.529L624.783 117.973L627.789 117.083L631.799 114.523V113.41L632.467 112.742L639.149 111.629L641.821 109.514L646.722 107.177L646.944 105.73L649.06 102.503L651.065 101.612L652.513 99.6088L655.074 97.0489L659.974 94.3777L665.208 93.8212L666.433 95.0455L666.099 96.1585L661.979 97.2715L660.308 100.722L657.747 101.612L657.19 104.283L654.517 107.845L654.183 110.739L655.074 111.295L656.188 110.071L660.197 106.843L661.645 108.29H664.206L667.77 109.403L669.44 110.627L671.111 114.078L674.118 117.083L678.461 116.86L680.131 115.747L681.913 117.194L683.695 117.75L685.143 116.86H686.368L688.15 115.747L692.604 111.74L696.391 110.516L703.741 110.182L708.752 108.067L711.648 106.621L713.318 106.843V113.187L713.875 113.521L717.105 114.411L719.221 113.855L726.014 112.074L727.239 110.85L728.91 111.406V119.197L732.473 122.648L733.921 123.315L735.369 124.428L733.921 124.762L733.03 124.428L728.91 123.872L726.571 124.54L724.01 124.317L720.446 125.986H718.441L711.982 124.54L706.191 124.762L704.075 127.656L696.28 128.324L693.607 129.214L692.382 132.664L690.934 133.889L690.377 133.666L688.707 131.885L683.695 134.556H683.027L681.802 132.776L680.911 132.998L678.795 137.895L677.681 142.347L674.118 150.027L672.67 149.137ZM639.706 86.2529L641.71 83.9157L644.16 83.0253L650.174 78.6846L652.735 78.0168L653.292 78.5733L647.613 84.2496L643.937 86.3642L641.599 87.3659L639.706 86.2529ZM735.703 121.98L736.371 124.762L739.935 124.985L741.383 123.649C741.383 123.649 741.271 121.98 740.937 121.868C740.603 121.646 739.155 119.754 739.155 119.754L736.705 119.976L734.923 120.199L734.589 121.423L735.703 121.98Z" fill="#E0F0D1" stroke="white" stroke-width="2"/>
<path d="M652.512 371.845L653.069 365.278L657.747 361.494L659.863 360.381V357.153L660.642 355.373L659.417 353.592L656.744 353.926L654.406 351.143L652.512 346.135L653.515 343.241L651.287 339.68L649.283 334.56L644.16 333.781L636.587 327.548L634.137 322.874L635.028 319.201L637.478 312.523L638.146 309.184L636.03 308.071L628.346 307.403L627.121 305.288V300.725L621.219 296.83L613.2 288.148L610.639 280.024L610.082 275.349L610.862 272.678L607.966 269.228L606.63 266.557L598.055 267.447L586.918 268.115L532.571 269.45L534.019 272.344L533.908 274.793L536.469 278.799L539.81 283.14L543.262 286.479L546.158 286.702L547.717 287.926V291.153L545.712 292.934L545.156 295.494L547.494 299.056L550.167 302.395L553.063 304.732L554.51 317.643L553.619 362.162L554.176 368.506L580.57 368.283L606.518 367.504L642.712 366.057L645.162 370.175L644.271 373.626L640.819 376.408L640.262 378.411L646.053 378.968L650.619 377.744L652.512 371.845Z" fill="#E0F0D1" stroke="white" stroke-width="2"/>
<path d="M868.117 392.992L853.973 384.422L850.521 383.531L832.034 385.868L830.252 382.529L827.134 380.081L808.536 380.637L800.295 381.639L790.049 386.648L782.476 389.653L775.237 390.988L760.314 392.546L760.426 387.983L762.319 386.536L765.326 385.757L766.105 381.528L770.449 378.745L774.792 377.076L779.804 372.958L784.704 370.398L785.483 366.836L790.049 362.607L790.829 363.72L793.613 363.943L796.286 359.936L798.179 359.491L801.074 359.825L803.079 355.373L805.863 352.702L806.42 350.698L806.531 346.803L811.431 346.914L854.307 340.681L918.343 326.992L920.57 332.334L924.579 339.568L927.252 342.239L927.92 344.799L925.247 345.022L926.138 345.69L925.804 350.364L922.909 351.811L922.241 354.148L920.793 357.376L916.672 359.157L914 358.823L912.329 358.6L910.547 357.153L910.881 358.6V359.713H912.997L913.888 361.16L911.772 368.172H916.45L917.118 369.953L919.679 367.393L921.127 366.836L919.011 370.843L915.559 376.186H914.111L912.886 375.629L909.879 376.297L904.088 378.968L896.849 384.867L893.063 390.098L890.947 397.332L890.39 400.003L885.156 400.56L879.476 402.229L868.117 392.992ZM923.02 363.831L925.916 361.049L929.479 358.155L931.15 357.487L931.373 355.261L930.704 348.472L929.034 345.912L928.366 343.798L929.145 343.575L932.152 349.696L932.598 354.594L932.375 358.378L928.588 360.047L925.47 362.718L924.245 364.054L923.02 363.831Z" fill="#E0F0D1" stroke="white" stroke-width="2"/>
<path d="M515.755 222.26L514.642 219.7L514.085 217.919L510.855 216.138L505.51 214.469L503.06 213.133L500.164 213.245L496.044 213.69L491.366 215.025L484.684 210.462L482.234 208.236L470.318 208.904L424.101 206.233L384.455 203.784L379.666 252.422L416.528 256.094L414.969 279.578L439.135 280.691L484.35 282.027L533.128 282.695H538.14L535.69 279.356L532.794 275.015L532.906 272.455L531.347 269.45L529.231 263.663L528.785 256.206L527.226 251.643L526.669 246.078L524.108 241.96L522.994 236.729L519.876 227.936L518.762 222.037L515.755 222.26Z" fill="#E0F0D1" stroke="white" stroke-width="2"/>
<path d="M973.914 152.142L975.139 148.58L972.132 147.245L971.576 143.794L967.01 142.57L966.676 139.231L953.646 97.5164L952.866 97.6054L952.198 99.3862L951.53 98.8297L950.416 97.7167L948.746 99.8314L948.523 102.38L949.08 111.74L951.196 114.857V119.642L946.852 124.985L944.18 125.987V126.766L945.405 128.88V138.452L944.514 148.691L944.291 153.922L945.405 155.481L945.182 160.712L944.625 162.381L945.739 163.605L951.418 162.27L966.787 158.374L968.68 155.147L973.135 153.032L973.914 152.142Z" fill="#E0F0D1" stroke="white" stroke-width="2"/>
<path d="M909.323 248.971L909.434 247.302L912.441 245.855L914.334 242.739L916.227 240.067L919.902 236.506V235.17L913.109 230.607L911.995 227.602L908.989 227.268L908.877 226.266L908.098 223.818L910.548 222.594L910.77 219.366L909.323 217.919L909.545 216.583L911.661 213.133V209.683L914.446 206.233L920.682 209.015L927.809 211.13L930.594 212.465L930.705 214.469L930.148 217.474L930.594 222.482L928.255 224.597L927.03 225.71L927.587 226.266L930.594 225.933L931.819 225.042L933.6 228.826L933.823 239.288L934.491 240.513L933.266 246.634L929.814 253.868L926.807 258.32L925.916 263.663L923.578 266.334H922.687L922.353 263.329L923.243 262.216L923.021 260.546L918.566 259.879L913.221 257.319L909.657 254.091L908.543 251.865L909.323 248.971Z" fill="#E0F0D1" stroke="white" stroke-width="2"/>
<path d="M292.911 472.793L274.313 469.899L272.977 480.584L255.381 478.358L262.063 434.172L269.858 374.961L274.759 340.57L312.623 344.911L354.274 349.808L389.911 352.924L389.577 364.944L388.018 364.833L379.777 473.572L348.149 471.568L305.718 467.45L306.498 474.462L292.911 472.793Z" fill="#E0F0D1" stroke="white" stroke-width="2"/>
<path d="M129.092 188.091L172.19 197.551L201.146 203.339L189.341 262.438L183.327 295.605L179.652 312.857L177.313 325.211L174.418 343.464L172.525 346.914L170.743 346.803L169.406 343.909L166.288 343.353L164.84 342.128L162.836 342.24L161.833 343.13L159.829 344.577L159.495 352.702L159.161 354.371L158.604 368.172L157.379 370.175L138.781 341.794L91.8955 272.678L78.0527 251.531L87.5745 215.248L96.4949 180.411L129.092 188.091Z" fill="#EDF0EA" stroke="white" stroke-width="2"/>
<path d="M731.248 229.939L733.141 247.191L738.487 292.934L742.83 292.712L745.392 291.821L749.401 293.825L751.294 298.499L757.308 298.61L759.312 300.836H761.206L763.878 299.278L767.331 299.835L769.001 301.282L771.006 299.056L773.567 297.497L776.24 297.052L776.908 300.057L778.69 301.17L781.586 303.396L782.476 303.619L784.704 303.508L786.04 302.84V300.503L787.933 298.833L788.045 293.491L789.27 288.816L791.386 287.369L792.499 288.148L793.613 289.373L794.393 289.595L794.838 289.15L793.836 286.145V283.696L795.061 282.138L797.845 278.132L799.293 276.462L801.743 277.019L804.081 275.349L807.422 271.676L809.873 267.558L810.095 261.548L810.652 255.983V250.863L809.316 247.302L810.652 245.298L812.1 243.963L811.432 240.847L806.643 212.354L799.738 216.472L795.395 219.032L791.608 223.15L787.154 227.491L783.59 228.381L780.361 228.938L774.235 231.831L771.897 232.054L768.11 228.604L762.319 229.272L759.424 227.602L756.974 226.155L731.248 229.939Z" fill="#EDF0EA" stroke="white" stroke-width="2"/>
<path d="M450.717 367.616L448.712 394.661L447.71 414.695L447.933 416.476L452.387 420.482L454.28 421.484H455.283L456.285 419.147L457.956 421.261L459.737 421.373L460.071 421.15L460.294 419.926L463.412 421.484L462.967 425.379L467.199 425.936L469.983 427.049L474.66 427.717L477.222 429.498L480.006 427.605L483.904 428.385L486.354 431.835L487.69 431.946V434.506L490.029 435.285L492.813 432.948L494.818 433.616L497.825 433.727L498.604 436.287L503.504 438.29L505.397 437.956L507.513 433.282H508.961L510.186 435.619L514.864 436.509L518.65 437.956L521.991 438.847L523.773 438.068L524.552 435.062H529.564L531.68 436.064L534.687 433.949H536.246L536.914 435.508H540.923L543.15 433.504L545.712 434.172L547.605 436.621L550.946 438.513L554.733 439.514L556.849 440.85L556.514 399.002L554.955 386.87L554.844 377.299L553.173 369.953L552.505 362.385L552.617 357.599L538.584 357.933L487.022 357.376L437.241 355.039L391.025 353.035L390.579 364.944L450.717 367.616Z" fill="#E0F0D1" stroke="white" stroke-width="2"/>
<path d="M812.323 208.793L813.771 208.236L820.118 202.115L820.898 209.794L858.206 202.56L899.3 193.879L901.861 196.438L905.313 196.884L907.541 203.116L910.214 205.231L913.332 205.676L913.443 205.787L910.548 209.349V212.799L908.432 216.25L908.209 218.364L909.657 219.811L909.434 221.926L906.761 223.15L907.875 226.934L908.098 228.158L911.216 228.492L912.218 231.275L918.789 235.615V236.061L915.336 239.4L913.666 241.848L911.773 244.965L908.766 246.3L907.207 246.634L904.868 248.081L903.086 249.639L878.14 254.425L835.042 263.106L822.457 264.664L818.114 265.443L812.434 240.513L807.646 211.686L812.323 208.793Z" fill="#E0F0D1" stroke="white" stroke-width="2"/>
<path d="M964.893 190.428L964.003 185.531L962.221 178.853L968.569 177.184L970.239 178.631L974.025 183.417L977.144 188.314L974.025 189.872L972.578 189.649L971.353 191.653L968.68 193.767L965.562 194.992L964.893 190.428Z" fill="#EDF0EA" stroke="white" stroke-width="2"/>
<path d="M516.534 196.438L515.532 200L515.977 203.339L518.873 205.565L517.536 211.575L515.532 216.138L517.202 219.811L517.982 221.035L516.534 221.147L515.755 219.366L515.086 217.14L511.411 215.137L506.066 213.467L503.282 212.02L500.052 212.132L495.709 212.577L491.477 213.912L485.574 209.683L482.567 207.012L470.429 207.902L424.212 205.231L384.565 202.782L386.236 175.18L389.354 137.339L389.8 131.774L453.167 136.115L516.534 138.007V141.012L515.086 142.681L512.859 144.351L512.748 146.799L513.973 149.248L518.539 153.032L519.096 156.037V195.993L516.534 196.438Z" fill="#EDF0EA" stroke="white" stroke-width="2"/>
<path d="M739.043 395.106L724.454 396.442L698.506 398.89L656.632 401.895L643.491 402.341L644.494 401.673L645.496 396.664L644.159 392.658L648.503 390.098L648.948 387.315L650.285 382.529L653.625 371.956L654.182 365.723L654.516 365.501L668.214 365.278L683.36 364.388L683.472 360.047L687.369 359.936L721.225 356.263L781.362 350.476L792.833 348.806L801.297 348.583L803.97 346.469L805.417 346.803L805.306 350.476L804.861 352.256L802.188 354.705L800.406 358.712L798.179 358.266L795.506 359.268L793.056 362.941L791.497 362.718L790.606 361.383L789.381 361.828L784.592 366.28L783.701 369.73L779.024 372.179L774.235 376.185L770.003 377.855L765.103 380.971L764.435 384.978L761.651 385.535L759.423 387.427L759.201 392.769L739.043 395.106Z" fill="#E0F0D1" stroke="white" stroke-width="2"/>
<path d="M246.361 335.339L273.757 339.346L275.873 324.098L283.668 267.892L286.23 243.406L250.37 239.511L252.82 224.931L254.825 213.133L216.181 206.344L202.26 203.562L190.455 262.438L184.441 295.828L180.766 312.968L178.873 323.207L246.361 335.339Z" fill="#E0F0D1" stroke="white" stroke-width="2"/>
<path d="M919.345 118.752L922.018 125.987L922.909 131.885L921.795 136.226L924.579 141.123L925.581 143.683L924.802 146.577L928.477 148.246L931.707 160.266V166.165L944.514 163.828L943.4 162.604L944.068 160.489L944.291 155.703L943.177 154.145L943.4 148.914L944.291 138.563V129.103L943.066 127.1V125.319L946.184 124.094L950.082 119.197V115.191L947.966 112.186L947.632 105.741L918.565 113.299L919.345 118.752Z" fill="#EDF0EA" stroke="white" stroke-width="2"/>
<path d="M74.9681 70.226L72.4067 65.4401L67.8407 64.661L67.3952 61.9899L64.611 61.3221L61.3814 60.7656L59.3768 61.8786L56.8154 58.6509L57.1495 55.4233L60.1564 55.0894L61.9383 50.6374L59.0427 49.4132L59.2655 45.2951L64.1656 44.6273L61.1587 41.6223L59.4882 33.7201L60.1564 30.4924V21.6998L58.1518 18.1383L60.7132 7.67622L63.0519 8.23272L65.7247 11.4604L68.7316 14.3541L72.2953 16.4688L77.3068 18.8061L80.7591 19.4739L83.9887 21.1433L87.7752 22.2563L90.3366 22.0337V19.3626L91.7844 18.1383L94.123 16.6914L94.4571 17.9157L94.7912 19.9191L92.2298 20.4755L91.8957 22.8128L93.9003 24.4823L95.1253 27.1535L95.7935 29.2681L97.464 29.0455L97.6868 27.5987L96.5731 26.1518L96.0163 22.5902L96.9072 20.5868L96.239 18.9174V16.0236L98.2436 12.0169L97.0186 9.1231L94.3458 3.78078L94.6799 2.89039L96.239 2L101.139 3.66948L111.942 6.67454L121.519 8.78921L143.792 15.1332L169.406 21.4772L186.111 25.3616L180.766 44.9056L175.754 68.089L171.968 86.175L171.522 96.3923L157.156 92.2519L140.117 88.3899L123.969 88.746L122.744 87.0432L116.396 89.3693L112.053 88.9019L109.157 86.9096L107.264 87.633L102.643 87.3548L100.727 85.8857L94.9806 83.86L93.6664 83.682L88.3209 82.1349L86.1826 83.9713L79.8905 83.6931L74.7565 79.9646L74.9681 70.226ZM85.6592 8.56661L87.8865 8.34401L88.4434 9.90219L90.1139 8.12142H92.6753L93.5662 9.79089L91.8957 11.683L92.5639 12.5734L91.7844 14.7993L90.2252 15.2445C90.2252 15.2445 89.2229 15.3558 89.2229 15.0219C89.2229 14.688 90.8934 12.1282 90.8934 12.1282L89.0002 11.4604L88.6661 13.1298L87.8865 13.7976L86.2161 11.2378L85.6592 8.56661Z" fill="#E0F0D1" stroke="white" stroke-width="2"/>
<path d="M594.936 117.194L598.166 117.75L601.395 117.083L609.636 113.521L612.866 111.406L615.205 110.516L617.321 112.185L616.096 113.41L613.98 116.86L613.312 118.975L614.425 119.642L616.43 118.529L617.655 118.307L620.662 119.197L621.33 120.422L622.555 120.644L623.223 119.42L627.678 125.319L636.81 126.654L645.942 129.103L648.837 130.327L662.535 133.221L664.317 135.781L668.326 137.116L670.22 148.469L672.001 150.027L673.672 151.029L672.447 153.589L670.442 155.369L668.104 160.6L666.656 163.271L666.879 165.275L668.549 165.609L669.774 163.494L671.445 162.604L672.336 160.044L674.451 158.04L677.458 153.589L682.136 146.577L683.027 146.02L683.361 147.133L683.138 149.693L679.908 157.261L676.902 163.605L676.345 167.167L675.677 170.061L676.567 171.508L676.345 174.513L674.229 177.184L673.672 179.187L674.34 183.194L675.008 186.978L673.338 189.872L672.447 193.099L671.333 196.55L672.558 199.221L673.226 206.01L675.008 211.019L674.786 214.357L657.078 216.361L637.589 217.474H623.446L622.666 215.804L619.437 215.359L616.541 213.912L613.98 209.794L613.646 205.788L615.873 202.56L615.316 201.002L612.977 198.553L612.087 194.88L611.418 187.312L609.08 184.529L601.284 179.521L597.052 173.511L593.266 172.398L590.816 169.282H587.252L584.022 165.609L583.465 158.374L583.577 154.145L585.247 150.695L584.356 147.133L581.572 144.017L583.577 138.007L589.368 133.777L591.15 131.663L590.927 122.648L591.15 119.531L593.823 116.415L594.936 117.194Z" fill="#E0F0D1" stroke="white" stroke-width="2"/>
<path d="M385.123 175.069L383.452 203.339L378.552 252.31L375.545 251.976L282.777 241.848L251.706 238.509L253.933 225.153L261.618 179.521L265.85 152.587L267.297 140.121L320.976 147.912L386.793 155.147L385.123 175.069Z" fill="#EDF0EA" stroke="white" stroke-width="2"/>
<path d="M394.143 73.6428L388.241 137.228L386.793 154.145L320.975 146.799L266.406 138.897L264.847 151.363L262.731 149.47L262.286 146.688L260.838 144.573L257.163 146.243L256.383 149.025L253.822 149.359L249.59 147.578L245.024 147.69L242.351 148.469L238.787 146.799L235.446 147.022L233.108 149.137L232.105 148.469L231.326 144.685L232.105 141.123L229.098 137.562L225.423 134.779L222.639 120.756L222.528 114.857L220.746 113.966L220.078 115.079L215.066 118.641L213.73 118.53L211.169 115.413L210.946 112.297L218.741 93.2091L218.073 90.2375L214.175 88.9909L213.73 87.9781L210.723 84.0826L205.6 72.4965L202.037 70.738L200.032 65.9966L201.48 60.8435L197.916 52.4182L202.816 28.7228L239.233 36.3912L259.724 40.1754L295.695 46.0742L328.326 50.5262L360.845 54.4216L395.145 57.8385L394.143 73.6428Z" fill="#EDF0EA" stroke="white" stroke-width="2"/>
<path d="M837.269 455.207L834.931 454.095L832.815 447.862L830.031 445.302L827.246 444.745L825.576 439.626L822.235 432.391L817.558 430.388L815.442 428.385L814.105 425.491L811.432 423.265L808.871 421.818L806.421 418.59L802.857 415.919L797.957 414.027L797.512 412.469L794.95 409.352L794.393 407.683L790.162 401.673L786.375 401.784L782.032 399.002L780.695 397.666L780.473 396.108L781.141 394.327L784.148 392.88L783.257 390.654L790.384 387.649L800.63 382.641L808.537 381.639L826.801 381.083L829.362 383.197L831.367 387.093L836.49 386.202L850.522 384.533L853.529 385.423L867.449 393.659L878.697 402.897L872.795 408.907L869.9 415.697L869.343 422.708L867.561 423.599L866.336 426.604L863.663 427.272L861.324 431.278L858.317 434.283L855.756 438.068L853.974 438.958L849.965 442.742L846.735 442.965L847.849 446.526L842.281 452.425L839.719 454.206L837.269 455.207Z" fill="#EDF0EA" stroke="white" stroke-width="2"/>
<path d="M931.262 217.474L931.819 214.469L931.596 211.798L928.255 210.128L921.016 207.902L914.334 205.009L913.666 204.563L910.659 204.229L908.432 202.56L906.093 195.993L902.418 195.437L899.745 192.766L856.981 201.781L821.789 208.459L821.232 201.224L823.014 199.889L824.462 198.665L825.576 196.884L827.58 195.659L829.696 193.656L830.253 191.875L832.592 188.87L833.817 187.757L833.594 186.644L832.146 183.194L830.142 182.971L828.026 176.182L831.255 174.179L836.155 172.509L840.61 171.062L844.174 170.506L851.19 170.283L853.306 171.73L855.088 171.953L857.426 170.506L860.322 169.282L866.113 168.725L868.452 166.722L870.456 163.16L872.238 161.046H874.577L876.693 159.821L876.915 157.261L875.245 154.924L874.911 153.255L876.136 150.917V149.248H874.131L872.127 148.358L871.236 147.133L871.013 144.24L877.472 138.118L878.14 137.228L879.811 134L883.041 128.992L886.047 124.874L888.386 122.202L891.059 120.199L894.511 118.863L900.636 117.417L904.2 117.639L909.212 115.97L917.453 113.521L918.232 118.975L920.905 126.209L921.796 131.774L920.682 136.449L923.578 141.457L924.469 143.683L923.466 147.245L927.587 149.137L930.594 160.489V166.944L929.926 179.076L930.817 185.086L931.596 189.093L933.267 197.218V206.233L932.042 208.793L934.38 211.798L934.937 212.799L932.821 214.803L933.155 216.25L934.603 215.916L936.274 214.469L938.835 211.575L940.06 210.907L941.842 211.575L944.403 211.798L953.201 207.457L956.431 204.452L957.879 202.783L962.556 204.563L958.769 208.57L954.426 211.798L946.519 217.697L943.624 218.81L937.164 220.924L932.71 222.148L931.596 221.703L931.262 217.474Z" fill="#EDF0EA" stroke="white" stroke-width="2"/>
<path d="M980.374 186.867L979.817 184.307L980.708 182.637L983.938 180.968L984.829 184.418L984.272 186.422L981.599 188.091V189.204L983.715 187.535L988.058 182.526L992.402 180.411L997.079 178.742L996.745 176.071L995.631 172.843L993.515 170.172L991.511 169.282L989.172 169.504L988.615 170.061L989.729 171.508L991.399 170.617L993.738 172.398L994.629 175.403L992.624 177.406L990.063 178.519L986.054 177.963L981.711 171.285L979.149 168.391H977.144L975.919 169.282L973.804 166.388L974.138 164.718L976.81 158.931L973.581 154.034L969.46 156.037L967.456 159.265L947.076 164.496L931.707 167.278L931.039 179.076L931.819 184.529L956.319 179.187L968.792 176.071L971.019 177.852L974.806 182.637L978.035 187.868L980.374 186.867ZM994.295 188.425L996.745 187.646L997.302 185.754L998.415 185.865L999.529 188.425L998.081 188.981L993.738 189.093L994.295 188.425ZM983.826 189.315L986.388 186.422H988.17L990.174 188.091L987.502 189.204L985.051 190.317L983.826 189.315Z" fill="#EDF0EA" stroke="white" stroke-width="2"/>
<path d="M956.208 97.1602L957.878 97.6054V94.7116L958.769 88.5902L961.664 83.3592L963.335 78.9073L961.219 76.2361V69.5582L962.11 68.4452L963.001 65.4401L962.778 63.7707L962.555 58.4283L964.56 53.086L967.79 43.1804L970.128 38.5059H971.576L973.024 38.7285V39.9528L974.472 42.5127L977.478 43.1804L978.369 42.2901V41.1771L982.824 37.9494L984.829 35.946L986.499 36.1686L993.181 38.8398L995.297 39.9528L1005.43 73.231H1012.11L1013 75.3457L1013.23 80.688L1016.46 83.2479H1017.35L1017.57 82.6914L1017.01 81.4671L1020.13 80.9106L1022.25 83.2479L1024.81 87.3659V89.4806L1022.47 94.7116L1020.35 95.3794L1016.57 98.8297L1011.22 104.951H1009.77C1009.11 104.951 1008.66 102.614 1008.66 102.614L1006.66 102.836L1005.54 104.506L1002.87 106.175L1001.76 107.845L1003.54 109.514L1002.98 110.182L1002.42 113.187L1000.31 112.965V111.184L999.974 109.737L998.304 110.071L996.299 106.509L993.961 107.956L995.408 109.626L995.742 110.85L994.851 112.297L995.186 115.747L995.408 117.528L993.626 120.422L990.397 120.978L990.063 124.206L984.16 127.656L982.713 128.212L980.931 126.543L977.478 130.55L978.592 134.111L976.922 135.558L976.699 140.455L975.474 147.467L973.024 146.465L972.467 143.015L968.012 141.791L967.79 139.008L954.76 97.3494L956.208 97.1602ZM996.856 114.523L998.527 112.853L1000.09 114.078L1000.75 116.749L998.861 117.75L996.856 114.523ZM1004.32 107.956L1006.32 110.071C1006.32 110.071 1007.77 110.182 1007.77 109.848C1007.77 109.514 1007.99 107.622 1007.99 107.622L1008.99 106.732L1008.1 104.729L1005.88 105.508L1004.32 107.956Z" fill="#E0F0D1" stroke="white" stroke-width="2"/>
<path d="M509.407 69.2131L508.739 73.5649V84.9953L510.521 90.5936L512.637 94.2887L513.193 105.341L515.198 120.31L517.203 128.435L517.648 135.558V141.457L515.866 143.46L513.862 144.907V146.577L514.864 148.469L519.43 152.364L520.209 155.926V195.882L587.363 195.214L610.973 194.435L610.416 187.757L608.411 185.42L600.393 180.3L596.384 174.401L592.597 173.4L590.37 170.283H586.806L582.908 166.054L582.352 158.263L582.463 153.922L584.134 150.583L583.354 147.578L580.236 144.128L582.686 137.339L588.7 132.887L590.036 131.329L589.813 122.425L590.036 119.086L592.931 115.747L597.163 112.519L598.611 112.297L603.623 106.732L605.627 105.841L608.189 101.501L610.861 97.4941L614.314 94.6003L619.659 92.3744L629.905 87.8111L634.248 85.8077L634.916 83.2479L630.016 83.6931L629.237 84.9174H628.569L626.564 81.4671L616.652 81.801L615.539 82.6914H614.425L613.868 81.2445L612.977 79.2411L610.082 79.7976L606.518 83.3592L604.736 84.2496H601.284L598.388 83.1366V80.7993L596.941 80.5767L596.384 81.1332L593.488 79.6863L592.931 76.4587L591.261 77.0152L590.704 78.1282L588.031 77.5717L582.129 74.9005L577.786 72.0067H574.556L573.108 70.8938L570.547 71.5615L569.322 72.7858L568.988 74.2327H563.642V71.8954L556.626 71.5615L556.292 69.8921H550.946L549.165 68.1113L547.494 61.3221L546.603 55.2007L544.487 54.3103L541.926 53.7538L541.258 53.9764L540.924 63.1029L507.402 63.0695L509.407 69.2131Z" fill="#EDF0EA" stroke="white" stroke-width="2"/>
<path d="M884.933 277.352L883.708 275.572L882.595 274.681L883.82 272.901L886.27 274.57L884.933 277.352Z" fill="#EDF0EA" stroke="white" stroke-width="2"/>
<path d="M884.376 280.691C887.451 280.691 889.944 278.2 889.944 275.126C889.944 272.053 887.451 269.562 884.376 269.562C881.301 269.562 878.808 272.053 878.808 275.126C878.808 278.2 881.301 280.691 884.376 280.691Z" fill="#EDF0EA" stroke="white" stroke-width="2"/>
<path d="M668.215 364.165L682.247 363.386L682.359 358.823H687.147L721.003 355.261L771.229 350.475L777.465 346.469L781.808 344.131L781.92 342.017L788.602 333.336L793.168 329.329L795.506 326.658L791.831 324.432L789.047 321.427L785.706 317.197L785.149 314.749L782.254 313.191L781.252 311.076L781.029 304.287L778.133 302.061L776.017 300.836L775.461 298.277L774.013 298.499L771.786 299.835L769.001 302.84L766.885 300.948L764.101 300.391L761.429 301.949H758.867L756.862 299.723L750.626 299.612L748.621 294.604L745.392 292.934L743.053 293.825L738.376 294.047L737.819 296.384L739.155 298.054L739.489 300.391L736.371 302.617L732.139 304.621L729.244 305.066L728.687 310.074L723.23 314.081L720.334 318.199L720.557 320.648L719.555 323.207L714.543 323.096L713.096 321.649L708.752 324.098L708.975 327.771L706.302 328.438L705.411 326.88L703.518 325.545L700.511 326.769L698.507 330.664L696.057 329.551L694.498 327.771L690.377 328.216L684.141 329.329L681.022 330.776L679.686 334.56L678.572 335.673L680.243 339.791L675.565 341.349L673.449 342.907L673.004 345.356L674.34 348.027V350.475L672.558 350.921L665.765 348.138L663.204 349.14L660.976 350.698L660.085 352.701L661.979 355.373L660.976 357.376L660.865 361.049L658.192 362.496L655.854 364.388L668.215 364.165Z" fill="#E0F0D1" stroke="white" stroke-width="2"/>
<g opacity="0.4">
<path d="M646.053 380.081L638.925 379.302L639.928 375.852L643.38 372.958L644.048 370.398L642.044 367.17L606.518 368.506L580.57 369.285L554.287 369.619L555.958 377.299L556.069 386.759L557.628 398.89L557.962 441.407L560.301 443.187L563.642 441.852L566.871 443.187L567.317 454.428L595.381 454.206L625.227 453.315L626.23 451.201L625.896 446.971L624.002 443.521L625.673 441.963L624.114 439.514L624.893 436.843L626.118 430.277L629.125 427.717L628.234 425.268L632.689 419.036L635.473 417.811L635.362 415.919L634.805 414.027L638.034 407.572L640.819 406.347L641.041 402.675L643.38 401.116L644.382 396.553L642.823 392.101L647.5 389.43L647.835 387.093L649.171 382.418L650.173 378.968L646.053 380.081Z" fill="#B2DA8D" stroke="white" stroke-width="2"/>
<path d="M128.647 424.378L106.708 421.373L95.571 419.703L95.0141 417.7V407.238L94.68 403.676L91.7845 399.002L90.8936 396.442L86.5503 391.767L83.3207 386.536L80.3138 386.314L76.7501 385.423L76.416 384.31L78.0865 383.642L77.4183 380.081L75.7478 377.744L70.4022 376.853L66.059 374.516L64.8339 371.956L61.9384 366.614L58.7088 363.163H55.4792L51.1359 360.826L46.1244 358.823L41.4471 358.266L38.7743 355.261L39.3311 353.147L41.3357 345.244L42.2266 343.13V340.459L40.4448 339.346L39.8879 336.118L38.2175 333.224L34.431 326.769L32.9832 323.319L31.3128 318.088L29.5309 312.189L25.9672 307.292L25.4104 304.064L26.3013 299.723H27.5263L29.865 297.943L31.09 293.936L29.9764 290.931L26.9695 290.374L24.8535 287.481L22.5148 283.363L22.2921 274.236L22.9603 272.121L23.6285 269.562L24.1853 266.89L17.8375 259.879V257.541L18.1716 256.985L18.5057 253.423L17.0579 248.971L14.4965 243.629L11.4896 238.621L9.48502 234.28L10.5987 230.162L11.2669 223.707L13.2715 220.256L13.6056 213.022L12.3805 209.015L10.5987 204.341L7.5918 199.666L8.48273 196.105L10.1532 191.43L12.1578 190.54L12.4919 189.315L15.9442 186.422L21.7353 173.288L21.958 165.052L23.8401 159.599L66.9276 172.732L95.4373 180.078L86.528 214.914L76.8726 251.754L90.9381 273.123L137.89 342.462L156.934 371.511L156.488 374.961L159.606 380.749L160.831 386.759L161.945 388.428L162.725 389.096L162.502 390.654L160.943 391.767L157.156 393.548L155.04 395.885L153.147 400.226L152.59 405.457L149.695 408.239L147.133 409.464L147.022 416.364L146.354 418.479L147.468 420.371L150.809 420.705L150.363 422.486L148.804 424.712L144.461 425.379L128.647 424.378ZM46.3472 369.953L47.7949 371.622L47.5722 373.069L44.0085 372.958L43.3403 371.622L42.6721 369.953H46.3472ZM48.4631 369.953L49.7995 369.285L53.8087 371.622L57.261 372.958L56.2588 373.626L51.2473 373.403L49.4654 371.622L48.4631 369.953ZM71.5159 391.99L73.5205 394.55L74.4114 395.663L76.0819 396.33L76.7501 394.661L75.6364 392.658L72.6296 390.432L71.4045 390.654V391.99H71.5159ZM69.9568 401.673L71.9614 405.234L73.2978 407.349L71.6273 407.572L70.1795 406.236C70.1795 406.236 69.3999 404.567 69.3999 404.121V401.673H69.9568Z" fill="#B2DA8D" stroke="white" stroke-width="2"/>
<path d="M664.985 520.762L667.881 516.088L669.885 516.978L677.458 514.864L679.797 515.197L681.467 516.088H687.258L687.704 514.307L685.811 497.835L682.692 476.688L683.806 426.492L683.583 407.906L683.806 400.894L678.461 401.228L656.633 403.008L642.155 403.454L641.932 407.015L638.814 408.462L635.919 414.138L636.476 415.919L636.587 418.59L633.357 419.815L629.46 425.491L630.35 428.051L627.009 430.833L625.896 437.177L625.228 439.292L627.009 442.074L625.339 443.632L627.009 446.749L627.344 451.423L626.007 454.206L625.784 455.208L626.23 460.772L628.457 465.781L628.346 467.673L630.907 469.899L630.128 473.349L629.125 473.683L629.794 475.798L620.216 492.493L619.325 501.619L619.882 503.288L646.833 502.509L655.965 501.73L658.081 501.396L658.749 502.955L657.635 510.857L661.31 514.53L663.76 521.653L664.985 520.762Z" fill="#B2DA8D" stroke="white" stroke-width="2"/>
<path d="M516.534 135.558L516.089 128.658L514.084 120.533L512.08 105.385L511.523 94.5892L509.407 91.0499L507.625 85.1289V73.5427L508.293 69.2577L506.289 63.0918L474.438 62.4351L453.724 61.7673L424.212 60.3204L396.148 57.9164L395.145 73.9656L389.911 130.661L453.167 135.002L516.534 136.894V135.558Z" fill="#B2DA8D" stroke="white" stroke-width="2"/>
<path d="M67.1061 171.73L98.5558 179.744L129.204 186.978L148.136 191.096L157.936 152.03L159.273 147.133L161.945 141.012L161.166 139.565L158.382 139.676L156.934 137.673L157.602 136.003L158.048 132.33L163.282 125.986L165.398 124.985L166.4 124.094L167.18 121.089L168.07 119.865L172.414 113.521L176.534 109.069L176.757 105.441L172.971 102.669L171.634 97.6054L157.045 93.3426L140.006 89.4806L123.524 89.8924L122.299 88.4344L116.619 90.4823L111.608 89.948L108.935 88.1895L107.487 88.7905L102.275 88.4677L100.093 86.8762L94.7026 84.9062L93.4775 84.8283L88.5217 83.4148L86.5617 85.1065L79.5902 84.8394L73.6766 80.5544L73.9105 70.2259L71.6275 66.3305L67.0615 65.6627L66.2819 62.8802L63.6092 62.3237L57.1499 64.661L54.5885 71.8954L51.0248 83.0252L47.4611 90.2597L41.8928 105.953L34.654 121.089L25.6334 135.113L23.5174 138.341L22.6265 147.912L21.1787 154.59L24.1967 158.486L67.1061 171.73Z" fill="#B2DA8D" stroke="white" stroke-width="2"/>
<path d="M306.943 468.563L348.149 472.57L380.779 474.685L389.02 365.946L449.603 368.617L447.71 394.55L446.596 414.584L446.819 416.809L451.719 421.373L453.946 422.597H455.951L456.508 421.261L457.287 422.263L459.96 422.486L461.185 421.818V421.595L462.299 422.152L461.853 426.27L466.865 427.049L469.538 428.051L474.215 428.83L477.111 430.833L480.229 428.718L483.236 429.386L485.686 432.836L486.577 432.948V435.285L490.252 436.509L493.036 434.172L494.706 434.729L497.045 434.84L497.713 437.177L503.504 439.403L506.066 438.847L508.182 434.395H508.293L509.518 436.509L514.641 437.511L518.427 438.958L521.991 440.071L524.664 438.735L525.443 436.175H529.453L531.791 437.288L535.132 435.062H535.578L536.135 436.621H541.369L543.485 434.617L544.933 435.062L546.826 437.4L550.501 439.514L554.287 440.627L557.071 442.186L560.078 444.411L563.531 443.076L565.869 443.966L566.649 466.226L567.428 476.799L568.097 481.363L570.992 486.26L571.994 491.268L576.672 497.835L577.006 501.285L577.674 502.175L576.895 510.745L573.665 516.088L575.113 518.981L574.556 521.653L573.665 529.666L572.217 533.005L572.551 537.68L566.315 539.46L555.29 544.469L554.176 546.584L551.28 548.698L548.942 550.368L547.494 551.258L541.146 557.157L538.139 559.494L532.237 563.056L525.889 565.727L518.873 569.511L516.868 571.18L510.409 575.187L506.623 575.855L502.279 581.976L497.825 582.31L496.711 584.425L499.272 586.54L497.602 592.661L496.154 597.67L494.929 602.01L494.038 607.019L494.929 609.69L496.934 617.481L498.047 624.27L500.052 627.275L498.938 628.944L495.486 631.059L489.138 626.718L483.013 625.494L481.565 626.051L478.002 625.383L473.324 621.933L467.533 620.708L459.069 616.924L456.731 612.584L455.283 605.349L451.719 603.234L451.051 600.675L451.719 600.007L452.053 596.223L450.606 595.555L449.937 594.442L451.385 589.545L449.603 586.985L446.04 585.538L442.253 580.641L438.244 573.295L433.567 570.401L433.789 568.287L427.887 554.597L426.996 549.922L424.991 547.808L424.769 546.138L418.087 540.24L415.191 536.789V535.565L412.296 533.228L404.723 532.003L396.482 531.336L393.029 528.776L388.018 530.779L384.009 532.449L381.447 536.01L380.334 540.128L375.433 546.917L372.761 549.589L369.865 548.476L367.861 547.251L365.745 546.584L361.401 544.024V543.356L359.397 541.241L353.606 538.904L345.365 530.223L342.803 524.992V515.976L339.24 508.742L338.683 505.737L336.901 504.624L335.676 502.287L330.108 499.949L328.66 498.169L320.753 489.376L319.305 485.815L314.071 483.255L312.4 478.358L309.505 475.13L307.612 474.573L306.943 468.563ZM501.166 626.273L500.497 618.371L497.491 610.358L496.822 602.567L498.493 593.44L502.168 585.761L506.066 579.75L509.63 575.744L510.298 575.966L504.952 583.312L500.052 590.546L497.825 597.892L497.491 603.68L498.493 610.469L501.388 618.482L501.945 624.27L502.168 625.939L501.166 626.273Z" fill="#B2DA8D" stroke="white" stroke-width="2"/>
<path d="M921.573 290.041L921.35 293.157L918.12 297.386L917.675 302.506L918.232 306.29L916.227 311.855L913.777 313.97L912.107 308.85L912.552 302.84L914.334 298.165L915.113 294.492L915.002 292.6L921.573 290.041ZM854.419 339.68L811.432 345.912L806.086 345.801L803.636 345.467L800.852 347.582L792.722 347.693L781.252 349.474L773.79 350.142L778.356 347.248L782.922 344.688V342.351L789.27 334.226L793.836 330.108L796.286 327.326L800.295 332.111L804.527 333.113L807.534 332L809.761 330.331L812.434 331.666L817.557 330.219L819.45 325.322L822.123 326.101L825.687 323.541L827.468 323.987L830.587 320.425L830.809 317.42L829.919 316.084L835.264 304.398L837.269 298.611L837.825 293.38L838.605 293.157L839.83 295.049L841.501 296.385L845.844 296.162L847.737 287.147L851.078 286.479L851.969 283.585L855.087 281.137L856.312 278.799L858.317 274.014L858.428 268.894L862.437 270.452L869.788 273.902L870.122 268.115L873.908 269.45L873.24 272.678L882.817 276.128L884.376 278.132L883.486 281.804L882.038 283.251L881.481 285.143L882.038 287.815L884.265 289.261L888.608 290.82L891.838 291.933L897.295 292.934L899.745 295.272L903.309 295.717L904.311 297.052L903.865 302.283L905.425 303.508L904.868 305.622L906.204 306.513L905.981 308.071L902.975 307.96L903.086 309.74L905.647 311.41L905.759 312.968L907.763 314.971L908.32 317.754L905.425 319.312L907.206 320.982L913.666 319.089L917.786 325.99L854.419 339.68Z" fill="#B2DA8D" stroke="white" stroke-width="2"/>
<path d="M837.157 277.909L843.617 271.231L846.512 270.341L848.294 268.671L849.964 266.223L851.189 266.557L854.642 266.334L859.765 262.327L861.435 261.771L862.883 262.884L865.778 264.219L869.119 267.558L868.674 272.344L862.66 269.45L857.315 267.447L857.203 274.014L854.308 280.358L851.078 283.029L850.187 285.589L846.846 286.145L844.953 295.16L841.835 295.383L840.61 294.27L839.273 292.044L836.823 292.6L836.266 298.277L834.262 303.953L828.694 316.196L829.696 317.754L829.584 319.98L827.134 322.762L825.353 322.317L821.9 324.877L818.782 323.987L816.777 329.44L812.545 330.553L809.761 329.106L806.977 331.221L804.416 332L800.852 331.11L796.62 326.101L792.722 323.653L789.938 320.87L786.709 316.752L786.152 314.192L783.033 312.3L782.365 310.853L782.143 304.621L782.477 304.732L785.149 304.509L787.154 303.396V300.948L789.047 299.278L789.159 293.491L790.161 289.484L791.386 288.705L791.831 289.039L792.945 290.263L794.838 290.82L796.063 289.373L794.95 285.922V284.142L798.402 279.022L799.738 277.575L801.966 278.132L804.861 276.128L808.314 272.344L810.986 267.781L811.209 261.548L811.766 256.206V250.752L810.541 247.413L811.543 245.966L812.434 245.187L817.223 266.668L822.012 265.777L834.485 264.331L837.157 277.909Z" fill="#B2DA8D" stroke="white" stroke-width="2"/>
</g>
<circle cx="459" cy="494" r="26" fill="#97CD62" fill-opacity="0.2"/>
<circle cx="505" cy="395" r="26" fill="#97CD62" fill-opacity="0.2"/>
<circle cx="62" cy="294" r="26" fill="#97CD62" fill-opacity="0.2"/>
<circle cx="212" cy="397" r="26" fill="#97CD62" fill-opacity="0.2"/>
<circle cx="326" cy="405" r="26" fill="#97CD62" fill-opacity="0.2"/>
<circle cx="346" cy="299" r="26" fill="#97CD62" fill-opacity="0.2"/>
<circle cx="234" cy="283" r="26" fill="#97CD62" fill-opacity="0.2"/>
<circle cx="461" cy="245" r="26" fill="#97CD62" fill-opacity="0.2"/>
<circle cx="98" cy="131" r="26" fill="#97CD62" fill-opacity="0.2"/>
<circle cx="125" cy="52" r="26" fill="#97CD62" fill-opacity="0.2"/>
<circle cx="450" cy="98" r="26" fill="#97CD62" fill-opacity="0.2"/>
<circle cx="572" cy="231" r="26" fill="#97CD62" fill-opacity="0.2"/>
<circle cx="482" cy="320" r="26" fill="#97CD62" fill-opacity="0.2"/>
<circle cx="634" cy="165" r="26" fill="#97CD62" fill-opacity="0.2"/>
<circle cx="729" cy="186" r="26" fill="#97CD62" fill-opacity="0.2"/>
<circle cx="862" cy="231" r="26" fill="#97CD62" fill-opacity="0.2"/>
<circle cx="956" cy="143" r="26" fill="#97CD62" fill-opacity="0.2"/>
<circle cx="984" cy="90" r="26" fill="#97CD62" fill-opacity="0.2"/>
<circle cx="923" cy="235" r="26" fill="#97CD62" fill-opacity="0.2"/>
<circle cx="592" cy="321" r="26" fill="#97CD62" fill-opacity="0.2"/>
<circle cx="593" cy="408" r="26" fill="#97CD62" fill-opacity="0.2"/>
<circle cx="655" cy="454" r="26" fill="#97CD62" fill-opacity="0.2"/>
<circle cx="600" cy="502" r="26" fill="#97CD62" fill-opacity="0.2"/>
<circle cx="865" cy="311" r="26" fill="#97CD62" fill-opacity="0.2"/>
<circle cx="863" cy="362" r="26" fill="#97CD62" fill-opacity="0.2"/>
<circle cx="805" cy="288" r="26" fill="#97CD62" fill-opacity="0.2"/>
<circle cx="740" cy="332" r="26" fill="#97CD62" fill-opacity="0.2"/>
<circle cx="714" cy="377" r="26" fill="#97CD62" fill-opacity="0.2"/>
<circle cx="459" cy="494" r="16" fill="#97CD62" fill-opacity="0.4"/>
<circle cx="505" cy="395" r="16" fill="#97CD62" fill-opacity="0.4"/>
<circle cx="62" cy="294" r="16" fill="#97CD62" fill-opacity="0.4"/>
<circle cx="212" cy="397" r="16" fill="#97CD62" fill-opacity="0.4"/>
<circle cx="326" cy="405" r="16" fill="#97CD62" fill-opacity="0.4"/>
<circle cx="346" cy="299" r="16" fill="#97CD62" fill-opacity="0.4"/>
<circle cx="234" cy="283" r="16" fill="#97CD62" fill-opacity="0.4"/>
<circle cx="461" cy="245" r="16" fill="#97CD62" fill-opacity="0.4"/>
<circle cx="98" cy="131" r="16" fill="#97CD62" fill-opacity="0.4"/>
<circle cx="125" cy="52" r="16" fill="#97CD62" fill-opacity="0.4"/>
<circle cx="450" cy="98" r="16" fill="#97CD62" fill-opacity="0.4"/>
<circle cx="572" cy="231" r="16" fill="#97CD62" fill-opacity="0.4"/>
<circle cx="482" cy="320" r="16" fill="#97CD62" fill-opacity="0.4"/>
<circle cx="634" cy="165" r="16" fill="#97CD62" fill-opacity="0.4"/>
<circle cx="729" cy="186" r="16" fill="#97CD62" fill-opacity="0.4"/>
<circle cx="862" cy="231" r="16" fill="#97CD62" fill-opacity="0.4"/>
<circle cx="956" cy="143" r="16" fill="#97CD62" fill-opacity="0.4"/>
<circle cx="984" cy="90" r="16" fill="#97CD62" fill-opacity="0.4"/>
<circle cx="923" cy="235" r="16" fill="#97CD62" fill-opacity="0.4"/>
<circle cx="592" cy="321" r="16" fill="#97CD62" fill-opacity="0.4"/>
<circle cx="593" cy="408" r="16" fill="#97CD62" fill-opacity="0.4"/>
<circle cx="655" cy="454" r="16" fill="#97CD62" fill-opacity="0.4"/>
<circle cx="600" cy="502" r="16" fill="#97CD62" fill-opacity="0.4"/>
<circle cx="865" cy="311" r="16" fill="#97CD62" fill-opacity="0.4"/>
<circle cx="863" cy="362" r="16" fill="#97CD62" fill-opacity="0.4"/>
<circle cx="805" cy="288" r="16" fill="#97CD62" fill-opacity="0.4"/>
<circle cx="740" cy="332" r="16" fill="#97CD62" fill-opacity="0.4"/>
<circle cx="714" cy="377" r="16" fill="#97CD62" fill-opacity="0.4"/>
<circle cx="459" cy="494" r="6" fill="#97CD62"/>
<circle cx="505" cy="395" r="6" fill="#97CD62"/>
<circle cx="62" cy="294" r="6" fill="#97CD62"/>
<circle cx="212" cy="397" r="6" fill="#97CD62"/>
<circle cx="326" cy="405" r="6" fill="#97CD62"/>
<circle cx="346" cy="299" r="6" fill="#97CD62"/>
<circle cx="234" cy="283" r="6" fill="#97CD62"/>
<circle cx="461" cy="245" r="6" fill="#97CD62"/>
<circle cx="98" cy="131" r="6" fill="#97CD62"/>
<circle cx="125" cy="52" r="6" fill="#97CD62"/>
<circle cx="450" cy="98" r="6" fill="#97CD62"/>
<circle cx="572" cy="231" r="6" fill="#97CD62"/>
<circle cx="482" cy="320" r="6" fill="#97CD62"/>
<circle cx="634" cy="165" r="6" fill="#97CD62"/>
<circle cx="729" cy="186" r="6" fill="#97CD62"/>
<circle cx="862" cy="231" r="6" fill="#97CD62"/>
<circle cx="956" cy="143" r="6" fill="#97CD62"/>
<circle cx="984" cy="90" r="6" fill="#97CD62"/>
<circle cx="923" cy="235" r="6" fill="#97CD62"/>
<circle cx="592" cy="321" r="6" fill="#97CD62"/>
<circle cx="593" cy="408" r="6" fill="#97CD62"/>
<circle cx="655" cy="454" r="6" fill="#97CD62"/>
<circle cx="600" cy="502" r="6" fill="#97CD62"/>
<circle cx="865" cy="311" r="6" fill="#97CD62"/>
<circle cx="863" cy="362" r="6" fill="#97CD62"/>
<circle cx="805" cy="288" r="6" fill="#97CD62"/>
<circle cx="740" cy="332" r="6" fill="#97CD62"/>
<circle cx="714" cy="377" r="6" fill="#97CD62"/>
</svg>
